<?xml version="1.0" encoding="UTF-8"?>
<svg xmlns="http://www.w3.org/2000/svg" width="24" height="24" viewBox="0 0 24 24">
    <defs>
        <style>.d{fill:#ff0;}</style>
    </defs>
    <g>
        <path class="d" d="M2,2V22H22V2H2ZM11.02,15.07c-.15,.36-.38,.68-.68,.94-.3,.26-.68,.47-1.12,.62-.45,.15-.97,.22-1.56,.22-.48,0-.94-.06-1.39-.19s-.84-.32-1.19-.59c-.34-.27-.62-.61-.82-1.03s-.3-.91-.29-1.48h1.84c0,.31,.05,.58,.16,.79,.11,.22,.24,.39,.42,.53,.17,.13,.38,.23,.61,.3,.23,.07,.48,.1,.73,.1,.17,0,.35-.01,.54-.04,.19-.03,.38-.09,.54-.18,.17-.09,.31-.21,.42-.36s.17-.34,.17-.58c0-.25-.07-.45-.22-.61-.15-.16-.34-.29-.59-.39-.24-.1-.52-.19-.82-.27s-.62-.16-.93-.26c-.32-.09-.64-.19-.94-.32-.31-.13-.58-.29-.82-.49-.24-.2-.44-.45-.59-.75-.15-.3-.22-.66-.22-1.09,0-.48,.09-.89,.28-1.24s.44-.64,.74-.88,.65-.41,1.04-.52c.39-.11,.78-.17,1.16-.17,.45,0,.88,.05,1.3,.16s.79,.28,1.11,.53,.58,.55,.77,.93c.19,.38,.28,.83,.28,1.37h-1.84c-.02-.28-.07-.51-.16-.69-.09-.18-.22-.32-.37-.43-.15-.1-.33-.18-.53-.22s-.41-.06-.65-.06c-.15,0-.31,.02-.46,.05-.15,.04-.29,.1-.42,.18-.12,.09-.23,.2-.31,.33-.08,.13-.12,.29-.12,.49,0,.18,.03,.33,.1,.44s.19,.22,.38,.31,.45,.19,.79,.29c.33,.1,.77,.22,1.31,.36,.16,.03,.39,.1,.67,.19,.29,.09,.57,.24,.85,.44,.28,.2,.53,.47,.73,.8,.21,.33,.31,.76,.31,1.28,0,.42-.08,.82-.23,1.18Zm8.76-1.25c-.16,.57-.41,1.07-.73,1.48s-.73,.74-1.22,.98-1.06,.36-1.72,.36h-3.73V7.37h3.73c.56,0,1.08,.1,1.56,.29,.48,.19,.9,.48,1.25,.86,.35,.38,.62,.86,.82,1.43,.2,.57,.3,1.24,.3,2.02,0,.68-.08,1.3-.24,1.87Z"/>
        <path class="d" d="M17.58,9.91c-.19-.27-.45-.47-.77-.62-.32-.14-.71-.21-1.18-.21h-1.36v5.85h1.69c.27,0,.54-.05,.8-.14,.26-.09,.49-.25,.69-.47,.2-.22,.36-.51,.48-.86,.12-.35,.18-.79,.18-1.3,0-.47-.04-.89-.13-1.27s-.22-.7-.42-.97Z"/>
    </g>
</svg>
